<svg width="1600" height="900" viewBox="0 0 1600 900" fill="none" xmlns="http://www.w3.org/2000/svg">
  <rect width="1600" height="900" rx="48" fill="#08111F"/>
  <rect width="1600" height="900" fill="url(#bg)"/>
  <circle cx="292" cy="220" r="230" fill="#2563EB" fill-opacity="0.28"/>
  <circle cx="1240" cy="218" r="180" fill="#8B5CF6" fill-opacity="0.2"/>
  <circle cx="1248" cy="676" r="184" fill="#BE123C" fill-opacity="0.14"/>
  <rect x="162" y="186" width="1276" height="528" rx="34" fill="#0D1728" fill-opacity="0.9" stroke="#FFFFFF" stroke-opacity="0.08"/>
  <rect x="238" y="266" width="412" height="244" rx="28" fill="#121F35"/>
  <rect x="706" y="262" width="318" height="32" rx="16" fill="#22324F"/>
  <rect x="706" y="320" width="544" height="18" rx="9" fill="#22324F"/>
  <rect x="706" y="354" width="468" height="18" rx="9" fill="#22324F"/>
  <rect x="706" y="424" width="486" height="18" rx="9" fill="#22324F"/>
  <rect x="706" y="458" width="424" height="18" rx="9" fill="#22324F"/>
  <rect x="706" y="528" width="180" height="52" rx="18" fill="#1D4ED8"/>
  <rect x="912" y="528" width="198" height="52" rx="18" fill="#18263F"/>
  <rect x="286" y="316" width="74" height="20" rx="10" fill="#60A5FA" fill-opacity="0.72"/>
  <rect x="286" y="360" width="210" height="16" rx="8" fill="#31486E"/>
  <rect x="286" y="394" width="168" height="16" rx="8" fill="#31486E"/>
  <rect x="286" y="448" width="128" height="16" rx="8" fill="#31486E"/>
  <text x="240" y="612" fill="#F5F7FB" fill-opacity="0.94" font-family="Outfit, 'IBM Plex Sans JP', sans-serif" font-size="82" font-weight="700">repo-audit</text>
  <text x="240" y="668" fill="#CBD5E1" fill-opacity="0.78" font-family="IBM Plex Sans JP, sans-serif" font-size="28" font-weight="500">Repository auditing CLI / API</text>
  <defs>
    <linearGradient id="bg" x1="164" y1="110" x2="1434" y2="790" gradientUnits="userSpaceOnUse">
      <stop stop-color="#0B1730"/>
      <stop offset="1" stop-color="#050913"/>
    </linearGradient>
  </defs>
</svg>
